<svg width="72" height="72" viewBox="0 0 72 72" fill="none" xmlns="http://www.w3.org/2000/svg">
<rect width="72" height="72" rx="36" fill="#00811E" fill-opacity="0.1"/>
<path d="M33.1509 43.9998C32.7829 43.9998 32.4309 43.8478 32.1789 43.5798L25.6949 36.6745C25.1895 36.1385 25.2175 35.2945 25.7535 34.7905C26.2909 34.2865 27.1349 34.3132 27.6375 34.8492L33.1375 40.7038L44.3482 28.4345C44.8469 27.8892 45.6895 27.8532 46.2335 28.3492C46.7762 28.8452 46.8135 29.6892 46.3175 30.2318L34.1349 43.5652C33.8855 43.8398 33.5309 43.9972 33.1602 43.9998H33.1509Z" fill="#00811E"/>
<mask id="mask0_124_107934" style="mask-type:luminance" maskUnits="userSpaceOnUse" x="25" y="28" width="22" height="16">
<path d="M33.1509 43.9998C32.7829 43.9998 32.4309 43.8478 32.1789 43.5798L25.6949 36.6745C25.1895 36.1385 25.2175 35.2945 25.7535 34.7905C26.2909 34.2865 27.1349 34.3132 27.6375 34.8492L33.1375 40.7038L44.3482 28.4345C44.8469 27.8892 45.6895 27.8532 46.2335 28.3492C46.7762 28.8452 46.8135 29.6892 46.3175 30.2318L34.1349 43.5652C33.8855 43.8398 33.5309 43.9972 33.1602 43.9998H33.1509Z" fill="white"/>
</mask>
<g mask="url(#mask0_124_107934)">
</g>
</svg>
